<mxfile host="app.diagrams.net" agent="Mozilla/5.0 (Macintosh; Intel Mac OS X 10_15_7) AppleWebKit/605.1.15 (KHTML, like Gecko) Version/18.0.1 Safari/605.1.15" version="24.8.6">
  <diagram name="Page-1" id="Fy_7K-hMt3qGImUwKHeO">
    <mxGraphModel dx="591" dy="1091" grid="1" gridSize="10" guides="1" tooltips="1" connect="1" arrows="1" fold="1" page="1" pageScale="1" pageWidth="827" pageHeight="1169" math="0" shadow="0">
      <root>
        <mxCell id="0" />
        <mxCell id="1" parent="0" />
        <mxCell id="UvuRIAZvoETlAp1kdMNr-2" value="Kontext Krankenkasse" style="ellipse;whiteSpace=wrap;html=1;" vertex="1" parent="1">
          <mxGeometry x="50" y="390" width="140" height="100" as="geometry" />
        </mxCell>
        <mxCell id="UvuRIAZvoETlAp1kdMNr-10" style="edgeStyle=orthogonalEdgeStyle;rounded=0;orthogonalLoop=1;jettySize=auto;html=1;endArrow=none;endFill=0;" edge="1" parent="1" source="UvuRIAZvoETlAp1kdMNr-3" target="UvuRIAZvoETlAp1kdMNr-9">
          <mxGeometry relative="1" as="geometry" />
        </mxCell>
        <mxCell id="UvuRIAZvoETlAp1kdMNr-12" value="Partnership" style="edgeLabel;html=1;align=center;verticalAlign=middle;resizable=0;points=[];" vertex="1" connectable="0" parent="UvuRIAZvoETlAp1kdMNr-10">
          <mxGeometry x="0.6" y="1" relative="1" as="geometry">
            <mxPoint x="29" y="8" as="offset" />
          </mxGeometry>
        </mxCell>
        <mxCell id="UvuRIAZvoETlAp1kdMNr-3" value="Kontext Systemintegration" style="ellipse;whiteSpace=wrap;html=1;" vertex="1" parent="1">
          <mxGeometry x="420" y="270" width="140" height="100" as="geometry" />
        </mxCell>
        <mxCell id="UvuRIAZvoETlAp1kdMNr-4" value="Kontext Patientenbasisdaten" style="ellipse;whiteSpace=wrap;html=1;" vertex="1" parent="1">
          <mxGeometry x="420" y="580" width="140" height="100" as="geometry" />
        </mxCell>
        <mxCell id="UvuRIAZvoETlAp1kdMNr-15" style="edgeStyle=orthogonalEdgeStyle;rounded=0;orthogonalLoop=1;jettySize=auto;html=1;endArrow=none;endFill=0;exitX=0.5;exitY=0;exitDx=0;exitDy=0;" edge="1" parent="1" source="UvuRIAZvoETlAp1kdMNr-16" target="UvuRIAZvoETlAp1kdMNr-14">
          <mxGeometry relative="1" as="geometry">
            <mxPoint x="280" y="590" as="sourcePoint" />
          </mxGeometry>
        </mxCell>
        <mxCell id="UvuRIAZvoETlAp1kdMNr-5" value="Kontext Telesystem" style="ellipse;whiteSpace=wrap;html=1;" vertex="1" parent="1">
          <mxGeometry x="70" y="580" width="140" height="100" as="geometry" />
        </mxCell>
        <mxCell id="UvuRIAZvoETlAp1kdMNr-7" style="rounded=0;orthogonalLoop=1;jettySize=auto;html=1;entryX=1;entryY=0;entryDx=0;entryDy=0;sketch=1;curveFitting=1;jiggle=2;endArrow=none;endFill=0;" edge="1" parent="1" source="UvuRIAZvoETlAp1kdMNr-6" target="UvuRIAZvoETlAp1kdMNr-2">
          <mxGeometry relative="1" as="geometry">
            <Array as="points">
              <mxPoint x="270" y="380" />
            </Array>
          </mxGeometry>
        </mxCell>
        <mxCell id="UvuRIAZvoETlAp1kdMNr-8" value="Upstream" style="edgeLabel;html=1;align=center;verticalAlign=middle;resizable=0;points=[];rotation=-15;" vertex="1" connectable="0" parent="UvuRIAZvoETlAp1kdMNr-7">
          <mxGeometry x="-0.0728" y="1" relative="1" as="geometry">
            <mxPoint x="-91" y="11" as="offset" />
          </mxGeometry>
        </mxCell>
        <mxCell id="UvuRIAZvoETlAp1kdMNr-6" value="Conformist" style="rounded=1;whiteSpace=wrap;html=1;rotation=45;" vertex="1" parent="1">
          <mxGeometry x="350" y="330" width="100" height="40" as="geometry" />
        </mxCell>
        <mxCell id="UvuRIAZvoETlAp1kdMNr-11" style="edgeStyle=orthogonalEdgeStyle;rounded=0;orthogonalLoop=1;jettySize=auto;html=1;endArrow=none;endFill=0;" edge="1" parent="1" source="UvuRIAZvoETlAp1kdMNr-9" target="UvuRIAZvoETlAp1kdMNr-4">
          <mxGeometry relative="1" as="geometry" />
        </mxCell>
        <mxCell id="UvuRIAZvoETlAp1kdMNr-9" value="Shared Kernel" style="rounded=1;whiteSpace=wrap;html=1;rotation=0;" vertex="1" parent="1">
          <mxGeometry x="440" y="460" width="100" height="40" as="geometry" />
        </mxCell>
        <mxCell id="UvuRIAZvoETlAp1kdMNr-13" value="Pateientenmodell" style="shape=callout;whiteSpace=wrap;html=1;perimeter=calloutPerimeter;base=70;position2=0.92;size=30;position=0.83;" vertex="1" parent="1">
          <mxGeometry x="350" y="410" width="120" height="50" as="geometry" />
        </mxCell>
        <mxCell id="UvuRIAZvoETlAp1kdMNr-14" value="Open Host Service" style="rounded=1;whiteSpace=wrap;html=1;rotation=90;" vertex="1" parent="1">
          <mxGeometry x="342" y="610" width="116" height="40" as="geometry" />
        </mxCell>
        <mxCell id="UvuRIAZvoETlAp1kdMNr-16" value="Anti Corruption&amp;nbsp;&lt;div&gt;Layer&lt;/div&gt;" style="rounded=1;whiteSpace=wrap;html=1;rotation=90;" vertex="1" parent="1">
          <mxGeometry x="170" y="610" width="116" height="40" as="geometry" />
        </mxCell>
      </root>
    </mxGraphModel>
  </diagram>
</mxfile>
